<?xml version="1.0" standalone="no"?>
<!DOCTYPE svg PUBLIC "-//W3C//DTD SVG 20010904//EN"
 "http://www.w3.org/TR/2001/REC-SVG-20010904/DTD/svg10.dtd">
<svg version="1.0" xmlns="http://www.w3.org/2000/svg"
 width="260.000000pt" height="260.000000pt" viewBox="0 0 260.000000 260.000000"
 preserveAspectRatio="xMidYMid meet">
<metadata>
Created by potrace 1.11, written by Peter Selinger 2001-2013
</metadata>
<g transform="translate(0.000000,260.000000) scale(0.100000,-0.100000)"
fill="#000000" stroke="none">
<path d="M877 2553 c-14 -14 -5 -54 43 -197 46 -135 63 -226 46 -243 -17 -17
-29 35 -12 57 10 13 9 13 -6 1 -10 -7 -15 -18 -11 -25 3 -6 -3 -3 -13 7 -17
15 -17 19 -4 27 12 8 9 9 -10 8 -16 -2 -25 2 -25 12 0 9 -8 14 -19 12 -12 -2
-16 1 -10 9 4 8 3 10 -5 5 -6 -4 -19 1 -29 11 -9 11 -13 13 -8 6 6 -10 4 -12
-8 -7 -9 3 -16 10 -16 16 0 5 -4 7 -9 3 -5 -3 -12 -1 -16 5 -3 5 -17 10 -31
10 -13 0 -24 5 -24 11 0 5 -4 8 -9 5 -5 -4 -12 0 -14 6 -4 10 -6 10 -6 1 -1
-7 -6 -13 -12 -13 -5 0 -7 5 -3 11 4 7 1 10 -7 7 -8 -3 -26 4 -41 14 -16 11
-28 15 -28 9 0 -5 9 -13 21 -16 11 -4 18 -9 16 -11 -7 -7 -57 18 -57 28 0 5
-4 7 -9 3 -5 -3 -15 0 -23 7 -7 7 -20 14 -28 16 -8 2 -18 8 -21 14 -3 5 -9 9
-13 9 -3 -1 -8 0 -11 0 -3 1 -11 2 -17 3 -7 1 -12 8 -10 16 3 11 0 11 -14 -1
-16 -13 -17 -12 -11 5 6 16 5 17 -8 6 -10 -8 -15 -9 -15 -1 0 6 -10 11 -22 11
-12 0 -30 8 -41 18 -20 16 -20 16 -13 -3 5 -14 -1 -11 -19 10 -14 17 -25 26
-24 20 3 -23 -2 -25 -18 -9 -12 11 -18 13 -21 5 -3 -8 -8 -6 -16 5 -11 14 -16
15 -35 4 -17 -9 -21 -9 -16 0 4 7 1 11 -6 9 -39 -5 -100 2 -94 11 3 6 2 10 -4
10 -5 0 -12 -6 -14 -12 -4 -10 -6 -9 -6 1 -1 11 -4 11 -18 0 -10 -8 -14 -9
-10 -2 4 6 3 14 -3 18 -6 4 -10 -30 -10 -97 0 -70 3 -98 10 -88 9 14 15 7 10
-15 -1 -5 4 -4 11 3 16 15 39 16 39 1 0 -5 -4 -7 -10 -4 -6 3 -7 -1 -3 -10 5
-13 7 -14 14 -3 7 11 11 10 18 -2 7 -9 6 -19 -2 -29 -9 -11 -9 -13 0 -8 6 4
14 3 18 -3 3 -5 -1 -11 -9 -11 -25 -2 -30 -4 -44 -13 -8 -4 -20 -2 -29 6 -12
9 -15 9 -9 1 4 -7 2 -13 -3 -13 -8 0 -11 -334 -11 -1105 l0 -1105 343 0 342 0
17 30 c10 17 21 29 25 28 4 -1 27 2 51 6 23 4 88 9 145 10 149 4 236 46 328
159 94 114 178 168 270 173 114 6 332 -77 460 -174 35 -27 79 -54 98 -61 48
-16 127 -14 165 4 40 19 56 46 62 103 9 80 45 168 65 156 13 -8 69 51 69 73 0
10 16 38 35 62 37 46 39 52 36 118 -2 33 2 43 17 47 30 10 53 40 53 72 1 16
-4 71 -9 122 -10 90 -13 98 -85 225 -40 73 -85 161 -99 197 -27 66 -31 87 -44
195 -19 169 -127 308 -359 463 -112 74 -335 190 -465 241 -47 18 -98 39 -115
46 -16 8 -77 34 -135 60 -126 55 -142 63 -245 130 -117 76 -133 83 -148 68z
m-646 -263 c6 0 8 4 5 8 -2 4 4 9 15 9 24 2 24 -2 -1 -27 -11 -11 -20 -15 -20
-9 0 5 -4 7 -10 4 -5 -3 -10 -1 -10 4 0 6 -8 11 -17 12 -15 0 -15 2 2 8 11 5
22 4 23 0 2 -5 8 -9 13 -9z m99 -3 c0 -5 -7 -7 -15 -3 -8 3 -15 0 -15 -7 0 -8
-4 -6 -10 3 -6 10 -10 11 -10 3 0 -7 -8 -13 -17 -13 -15 0 -15 1 1 13 20 15
66 18 66 4z"/>
</g>
</svg>
